[Header]
FileType HTR
DataType HTRS
FileVersion 1
NumSegments 64
NumFrames 3
DataFrameRate 24
EulerRotationOrder ZYX
CalibrationUnits mm
RotationUnits Degrees
GlobalAxisofGravity Y
BoneLengthAxis Y
ScaleFactor 1.0
[SegmentNames&Hierarchy]
Hips	GLOBAL
Spine	Hips
Spine1	Spine
Spine2	Spine1
Neck	Spine2
Head	Neck
LeftEye	Head
RightEye	Head
LeftShoulder	Spine2
LeftArm	LeftShoulder
LeftForeArm	LeftArm
LeftHand	LeftForeArm
LeftHandThumb1	LeftHand
LeftHandThumb2	LeftHandThumb1
LeftHandThumb3	LeftHandThumb2
LeftHandThumb4	LeftHandThumb3
LeftHandIndex1	LeftHand
LeftHandIndex2	LeftHandIndex1
LeftHandIndex3	LeftHandIndex2
LeftHandIndex4	LeftHandIndex3
LeftHandMiddle1	LeftHand
LeftHandMiddle2	LeftHandMiddle1
LeftHandMiddle3	LeftHandMiddle2
LeftHandMiddle4	LeftHandMiddle3
LeftHandRing1	LeftHand
LeftHandRing2	LeftHandRing1
LeftHandRing3	LeftHandRing2
LeftHandRing4	LeftHandRing3
LeftHandPinky1	LeftHand
LeftHandPinky2	LeftHandPinky1
LeftHandPinky3	LeftHandPinky2
LeftHandPinky4	LeftHandPinky3
RightShoulder	Spine2
RightArm	RightShoulder
RightForeArm	RightArm
RightHand	RightForeArm
RightHandPinky1	RightHand
RightHandPinky2	RightHandPinky1
RightHandPinky3	RightHandPinky2
RightHandPinky4	RightHandPinky3
RightHandRing1	RightHand
RightHandRing2	RightHandRing1
RightHandRing3	RightHandRing2
RightHandRing4	RightHandRing3
RightHandMiddle1	RightHand
RightHandMiddle2	RightHandMiddle1
RightHandMiddle3	RightHandMiddle2
RightHandMiddle4	RightHandMiddle3
RightHandIndex1	RightHand
RightHandIndex2	RightHandIndex1
RightHandIndex3	RightHandIndex2
RightHandIndex4	RightHandIndex3
RightHandThumb1	RightHand
RightHandThumb2	RightHandThumb1
RightHandThumb3	RightHandThumb2
RightHandThumb4	RightHandThumb3
LeftUpLeg	Hips
LeftLeg	LeftUpLeg
LeftFoot	LeftLeg
LeftToeBase	LeftFoot
RightUpLeg	Hips
RightLeg	RightUpLeg
RightFoot	RightLeg
RightToeBase	RightFoot
[BasePosition]
Hips	0	0	0	0	0	0	1
Spine	0	0	0	0	0	0	1
Spine1	0	0	0	0	0	0	1
Spine2	0	0	0	0	0	0	1
Neck	0	0	0	0	0	0	1
Head	0	0	0	0	0	0	1
LeftEye	0	0	0	0	0	0	1
RightEye	0	0	0	0	0	0	1
LeftShoulder	0	0	0	0	0	0	1
LeftArm	0	0	0	0	0	0	1
LeftForeArm	0	0	0	0	0	0	1
LeftHand	0	0	0	0	0	0	1
LeftHandThumb1	0	0	0	0	0	0	1
LeftHandThumb2	0	0	0	0	0	0	1
LeftHandThumb3	0	0	0	0	0	0	1
LeftHandThumb4	0	0	0	0	0	0	1
LeftHandIndex1	0	0	0	0	0	0	1
LeftHandIndex2	0	0	0	0	0	0	1
LeftHandIndex3	0	0	0	0	0	0	1
LeftHandIndex4	0	0	0	0	0	0	1
LeftHandMiddle1	0	0	0	0	0	0	1
LeftHandMiddle2	0	0	0	0	0	0	1
LeftHandMiddle3	0	0	0	0	0	0	1
LeftHandMiddle4	0	0	0	0	0	0	1
LeftHandRing1	0	0	0	0	0	0	1
LeftHandRing2	0	0	0	0	0	0	1
LeftHandRing3	0	0	0	0	0	0	1
LeftHandRing4	0	0	0	0	0	0	1
LeftHandPinky1	0	0	0	0	0	0	1
LeftHandPinky2	0	0	0	0	0	0	1
LeftHandPinky3	0	0	0	0	0	0	1
LeftHandPinky4	0	0	0	0	0	0	1
RightShoulder	0	0	0	0	0	0	1
RightArm	0	0	0	0	0	0	1
RightForeArm	0	0	0	0	0	0	1
RightHand	0	0	0	0	0	0	1
RightHandPinky1	0	0	0	0	0	0	1
RightHandPinky2	0	0	0	0	0	0	1
RightHandPinky3	0	0	0	0	0	0	1
RightHandPinky4	0	0	0	0	0	0	1
RightHandRing1	0	0	0	0	0	0	1
RightHandRing2	0	0	0	0	0	0	1
RightHandRing3	0	0	0	0	0	0	1
RightHandRing4	0	0	0	0	0	0	1
RightHandMiddle1	0	0	0	0	0	0	1
RightHandMiddle2	0	0	0	0	0	0	1
RightHandMiddle3	0	0	0	0	0	0	1
RightHandMiddle4	0	0	0	0	0	0	1
RightHandIndex1	0	0	0	0	0	0	1
RightHandIndex2	0	0	0	0	0	0	1
RightHandIndex3	0	0	0	0	0	0	1
RightHandIndex4	0	0	0	0	0	0	1
RightHandThumb1	0	0	0	0	0	0	1
RightHandThumb2	0	0	0	0	0	0	1
RightHandThumb3	0	0	0	0	0	0	1
RightHandThumb4	0	0	0	0	0	0	1
LeftUpLeg	0	0	0	0	0	0	1
LeftLeg	0	0	0	0	0	0	1
LeftFoot	0	0	0	0	0	0	1
LeftToeBase	0	0	0	0	0	0	1
RightUpLeg	0	0	0	0	0	0	1
RightLeg	0	0	0	0	0	0	1
RightFoot	0	0	0	0	0	0	1
RightToeBase	0	0	0	0	0	0	1
[Hips]
4	15.73402405	1007.501282	222.0668182	2.498291254	1.161161661	-0.08756528795	1.0
5	18.88055611	997.5708008	297.4351501	2.448740721	-1.733841777	0.1280145496	1.0
6	23.59734535	982.3289795	376.6827087	2.375619173	-3.874929905	-0.02201487496	1.0
[Spine]
4	0	101.8159943	1.315000057	1.174997568	0.9976258278	1.416946411	1.0
5	0	101.8159943	1.315000057	0.8235357404	1.681351185	2.186624527	1.0
6	0	101.8159943	1.315000057	0.08780813217	2.418322802	3.068944931	1.0
[Spine1]
4	0	100.8349991	-10.00800037	1.221479416	1.431012511	-0.8377370834	1.0
5	0	100.8349991	-10.00800037	1.743201137	2.064711094	-1.319286346	1.0
6	0	100.8349991	-10.00800037	2.184316635	2.5120368	-1.684267282	1.0
[Spine2]
4	0	91	-13.73399925	-3.253529787	1.387093186	-1.407866359	1.0
5	0	91	-13.73399925	-2.706470013	2.035298824	-1.895536423	1.0
6	0	91	-13.73399925	-2.241395235	2.510537624	-2.242505789	1.0
[Neck]
4	0	166.7169952	-25.16200066	-3.954589128	-0.9185617566	-2.019158602	1.0
5	0	166.7169952	-25.16200066	-4.793634892	-0.6393797398	-2.818997622	1.0
6	0	166.7169952	-25.16200066	-5.16745472	-0.5697907805	-2.978716135	1.0
[Head]
4	0	96.17900085	16.84999847	0.05529014021	-3.738537788	0.4925444126	1.0
5	0	96.17900085	16.84999847	-0.5046780109	-3.174475908	0.06497641653	1.0
6	0	96.17900085	16.84999847	-1.102521539	-2.87100172	-0.6288951039	1.0
[LeftEye]
4	30.6760006	64.09500122	92.83599854	0	0	0	1.0
5	30.6760006	64.09500122	92.83599854	0	0	0	1.0
6	30.6760006	64.09500122	92.83599854	0	0	0	1.0
[RightEye]
4	-30.6760006	64.09500122	92.83499908	0	0	0	1.0
5	-30.6760006	64.09500122	92.83499908	0	0	0	1.0
6	-30.6760006	64.09500122	92.83499908	0	0	0	1.0
[LeftShoulder]
4	45.70400238	109.4599991	-26.28000069	7.849015236	-14.02490044	-5.418842793	1.0
5	45.70400238	109.4599991	-26.28000069	7.665356159	-10.69093132	-6.542302132	1.0
6	45.70400238	109.4599991	-26.28000069	7.554541111	-9.142201424	-6.611969471	1.0
[LeftArm]
4	105.923996	-5.24600029	-22.32099915	-15.15060806	16.30202866	-78.60258484	1.0
5	105.923996	-5.24600029	-22.32099915	-14.23977184	18.6197567	-77.52877808	1.0
6	105.923996	-5.24600029	-22.32099915	-14.71125221	22.62728691	-78.48368835	1.0
[LeftForeArm]
4	278.414978	-0.0009999999311	0	-9.290885572e-08	-30.81355858	-0.0002174793917	1.0
5	278.414978	-0.0009999999311	0	1.055236953e-05	-25.97805786	-0.0002216468274	1.0
6	278.414978	-0.0009999999311	0	1.020518766e-06	-25.25392914	-0.0002140216675	1.0
[LeftHand]
4	283.2879944	0	0	47.59185028	15.30238342	-26.64759254	1.0
5	283.2879944	0	0	50.54931641	13.28717804	-29.16993713	1.0
6	283.2879944	0	0	44.53704453	6.48556757	-27.72420502	1.0
[LeftHandThumb1]
4	24.6609993	-15.75	26.8239994	27.60830116	-4.167031765	34.87857819	1.0
5	24.6609993	-15.75	26.8239994	26.99543381	-5.117928505	36.46611404	1.0
6	24.6609993	-15.75	26.8239994	26.35625839	-6.367576599	36.61621094	1.0
[LeftHandThumb2]
4	32.29800034	-18.64699936	18.64699936	-4.500106335	19.8255043	-13.30882072	1.0
5	32.29800034	-18.64699936	18.64699936	-8.965394974	23.17457008	-13.88270855	1.0
6	32.29800034	-18.64699936	18.64699936	-7.738556385	24.53344536	-13.90453053	1.0
[LeftHandThumb3]
4	26.52600098	-15.31499958	15.31499958	6.069678783	-25.03398514	0.7698907256	1.0
5	26.52600098	-15.31499958	15.31499958	6.192770958	-23.6894207	1.435543299	1.0
6	26.52600098	-15.31499958	15.31499958	6.288069725	-22.79111099	0.6241975427	1.0
[LeftHandThumb4]
4	19.54599953	-11.28499985	11.28499985	0	0	0	1.0
5	19.54599953	-11.28499985	11.28499985	0	0	0	1.0
6	19.54599953	-11.28499985	11.28499985	0	0	0	1.0
[LeftHandIndex1]
4	91.09299469	-5.170999527	22.60099792	5.536942005	2.313897848	4.443708897	1.0
5	91.09299469	-5.170999527	22.60099792	7.131907463	1.903839946	3.32412672	1.0
6	91.09299469	-5.170999527	22.60099792	8.292531967	2.063284159	0.2132950425	1.0
[LeftHandIndex2]
4	36.76399994	0	0	-0.4975184798	2.513577461	-17.73786354	1.0
5	36.76399994	0	0	-0.497949034	2.51449275	-17.7477417	1.0
6	36.76399994	0	0	-0.492048353	2.502099037	-17.61279869	1.0
[LeftHandIndex3]
4	28.83100128	0	0	-0.03911158442	0.2667755187	-4.766088009	1.0
5	28.83100128	0	0	-0.03920694813	0.2678722143	-4.77704668	1.0
6	28.83100128	0	0	-0.03808519244	0.2543623745	-4.642178535	1.0
[LeftHandIndex4]
4	23.92700005	0	0	0	0	0	1.0
5	23.92700005	0	0	0	0	0	1.0
6	23.92700005	0	0	0	0	0	1.0
[LeftHandMiddle1]
4	95.33399963	0	0	-1.052791238	7.911505699	-11.94680882	1.0
5	95.33399963	0	0	-0.9403924346	7.530595303	-10.98327255	1.0
6	95.33399963	0	0	-1.041822791	7.835497379	-11.85151291	1.0
[LeftHandMiddle2]
4	36.98199844	0	0	-1.008231997	3.314665318	-26.90074348	1.0
5	36.98199844	0	0	-1.013707042	3.322155952	-26.99239922	1.0
6	36.98199844	0	0	-1.018135428	3.328182936	-27.0663681	1.0
[LeftHandMiddle3]
4	29.50900078	0	0	-0.2402714044	1.822956681	-15.77756882	1.0
5	29.50900078	0	0	-0.2428749204	1.83154428	-15.86769199	1.0
6	29.50900078	0	0	-0.2450837493	1.838732362	-15.94323826	1.0
[LeftHandMiddle4]
4	28.3390007	0	0	0	0	0	1.0
5	28.3390007	0	0	0	0	0	1.0
6	28.3390007	0	0	0	0	0	1.0
[LeftHandRing1]
4	91.04499817	-0.4390000105	-18.65100098	-3.319176435	7.489438057	-30.75183296	1.0
5	91.04499817	-0.4390000105	-18.65100098	-3.202229977	7.555706978	-29.84477615	1.0
6	91.04499817	-0.4390000105	-18.65100098	-3.325409412	7.643321037	-30.73963737	1.0
[LeftHandRing2]
4	31.54000092	0	0	-0.1844514757	2.021331787	-17.09486008	1.0
5	31.54000092	0	0	-0.1873681992	2.032295227	-17.20911598	1.0
6	31.54000092	0	0	-0.1867429912	2.029952765	-17.18471336	1.0
[LeftHandRing3]
4	29.37700081	0	0	0.02910859324	1.234681487	-12.50709724	1.0
5	29.37700081	0	0	0.02773651108	1.245992422	-12.62151432	1.0
6	29.37700081	0	0	0.02802353911	1.243646502	-12.59778214	1.0
[LeftHandRing4]
4	26.47500038	0	0	0	0	0	1.0
5	26.47500038	0	0	0	0	0	1.0
6	26.47500038	0	0	0	0	0	1.0
[LeftHandPinky1]
4	80.77799988	-4.887000084	-38.06099701	-3.394050598	12.43727398	-26.86508179	1.0
5	80.77799988	-4.887000084	-38.06099701	-3.331529617	12.37521458	-26.39496803	1.0
6	80.77799988	-4.887000084	-38.06099701	-3.443835497	12.73333836	-27.19305038	1.0
[LeftHandPinky2]
4	36	0	0	-0.8994292021	2.604630947	-29.56193733	1.0
5	36	0	0	-0.9049657583	2.613242149	-29.66440201	1.0
6	36	0	0	-0.9022318125	2.609022856	-29.61395454	1.0
[LeftHandPinky3]
4	21.14200211	0	0	-0.1140496507	1.569767475	-7.176062584	1.0
5	21.14200211	0	0	-0.1162011251	1.579768658	-7.278346539	1.0
6	21.14200211	0	0	-0.1151358262	1.574826121	-7.227986813	1.0
[LeftHandPinky4]
4	19.75699997	0	0	0	0	0	1.0
5	19.75699997	0	0	0	0	0	1.0
6	19.75699997	0	0	0	0	0	1.0
[RightShoulder]
4	-45.70000076	109.4620056	-26.28000069	-0.4264704585	9.55729866	0.2409687489	1.0
5	-45.70000076	109.4620056	-26.28000069	-0.5875386596	11.62942028	-2.219884396	1.0
6	-45.70000076	109.4620056	-26.28000069	-0.6445044875	12.38231277	-2.944876909	1.0
[RightArm]
4	-105.9280014	-5.248000145	-22.32099915	2.509806871	-2.051877975	73.87107849	1.0
5	-105.9280014	-5.248000145	-22.32099915	5.107450962	2.278514862	74.5912323	1.0
6	-105.9280014	-5.248000145	-22.32099915	8.141674995	4.241707802	73.41221619	1.0
[RightForeArm]
4	-278.414978	0	0	1.871263407e-06	34.17344284	7.326510058e-06	1.0
5	-278.414978	0	0	2.550466343e-05	35.40003586	4.203414937e-05	1.0
6	-278.414978	0	0	-5.744080227e-06	39.99808502	9.122357369e-06	1.0
[RightHand]
4	-283.2879944	0	0.0009999999311	22.80899239	3.443090439	5.586457253	1.0
5	-283.2879944	0	0.0009999999311	19.73327446	5.505053997	6.474416733	1.0
6	-283.2879944	0	0.0009999999311	17.82398605	7.304151535	6.001140594	1.0
[RightHandPinky1]
4	-80.76699829	-4.885000229	-38.06000137	-5.780516148	-7.898404121	47.58878326	1.0
5	-80.76699829	-4.885000229	-38.06000137	-6.093039036	-6.663676739	50.02552032	1.0
6	-80.76699829	-4.885000229	-38.06000137	-6.532413006	-5.206655979	53.40065765	1.0
[RightHandPinky2]
4	-36	0	0.0009999999311	-2.190762281	-4.019469261	48.87078857	1.0
5	-36	0	0.0009999999311	-2.174412727	-4.006671429	48.66265488	1.0
6	-36	0	0.0009999999311	-2.169170618	-4.002560616	48.59572601	1.0
[RightHandPinky3]
4	-21.14200211	0	0	-2.036053658	-1.601585031	43.06818771	1.0
5	-21.14200211	0	0	-2.020330906	-1.587363005	42.85656357	1.0
6	-21.14200211	0	0	-2.014572382	-1.582117319	42.7788353	1.0
[RightHandPinky4]
4	-19.75699997	0	0	0	0	0	1.0
5	-19.75699997	0	0	0	0	0	1.0
6	-19.75699997	0	0	0	0	0	1.0
[RightHandRing1]
4	-91.03599548	-0.4390000105	-18.65100098	-4.998228073	-6.933772564	43.21615219	1.0
5	-91.03599548	-0.4390000105	-18.65100098	-5.313268661	-6.187184811	45.73705292	1.0
6	-91.03599548	-0.4390000105	-18.65100098	-5.682248116	-5.375646114	48.65077972	1.0
[RightHandRing2]
4	-31.54000092	0	0	-0.3967710733	-2.662610054	23.91805267	1.0
5	-31.54000092	0	0	-0.3950054944	-2.658223152	23.87018013	1.0
6	-31.54000092	0	0	-0.4012485147	-2.673845768	24.0400486	1.0
[RightHandRing3]
4	-29.37700081	0	0	-0.1967207938	-0.1544176787	20.33946419	1.0
5	-29.37700081	0	0	-0.1954509616	-0.1495995969	20.28942871	1.0
6	-29.37700081	0	0	-0.1996530145	-0.165571481	20.45528793	1.0
[RightHandRing4]
4	-26.47500038	0	0	0	0	0	1.0
5	-26.47500038	0	0	0	0	0	1.0
6	-26.47500038	0	0	0	0	0	1.0
[RightHandMiddle1]
4	-95.32500458	0	0	-2.733779907	-4.930088043	25.90669823	1.0
5	-95.32500458	0	0	-3.12874794	-3.835193396	29.02168465	1.0
6	-95.32500458	0	0	-3.663608789	-2.712496281	33.1026001	1.0
[RightHandMiddle2]
4	-36.98199844	0	0	-1.759710908	-4.155288696	38.07303238	1.0
5	-36.98199844	0	0	-1.774233103	-4.168596268	38.26812363	1.0
6	-36.98199844	0	0	-1.814578176	-4.205094814	38.80624771	1.0
[RightHandMiddle3]
4	-29.50900078	0	0	-0.8810257912	-3.047382593	31.09701729	1.0
5	-29.50900078	0	0	-0.8910692334	-3.063259602	31.28616333	1.0
6	-29.50900078	0	0	-0.9196267128	-3.10776329	31.81842613	1.0
[RightHandMiddle4]
4	-28.3390007	0	0.0009999999311	0	0	0	1.0
5	-28.3390007	0	0.0009999999311	0	0	0	1.0
6	-28.3390007	0	0.0009999999311	0	0	0	1.0
[RightHandIndex1]
4	-91.08300018	-5.167999744	22.60099792	-0.9379987121	1.865713716	12.72487068	1.0
5	-91.08300018	-5.167999744	22.60099792	-1.264750004	2.105036736	15.6890831	1.0
6	-91.08300018	-5.167999744	22.60099792	-1.698752284	2.65999198	19.57196617	1.0
[RightHandIndex2]
4	-36.76399994	0	0	-0.9351745248	-3.274887085	26.38991356	1.0
5	-36.76399994	0	0	-0.9405902028	-3.282861233	26.48477936	1.0
6	-36.76399994	0	0	-0.9741382599	-3.331450224	27.06598473	1.0
[RightHandIndex3]
4	-28.83100128	0	0	-0.3249339163	-0.4700578451	17.07020569	1.0
5	-28.83100128	0	0	-0.3277500868	-0.4791614711	17.16479301	1.0
6	-28.83100128	0	0	-0.3452222943	-0.5347446203	17.74432564	1.0
[RightHandIndex4]
4	-23.92700005	0	0	0	0	0	1.0
5	-23.92700005	0	0	0	0	0	1.0
6	-23.92700005	0	0	0	0	0	1.0
[RightHandThumb1]
4	-24.64799881	-15.72700024	26.82600021	13.85890675	-1.03726685	-16.86711502	1.0
5	-24.64799881	-15.72700024	26.82600021	13.14455795	2.218509912	-15.06528378	1.0
6	-24.64799881	-15.72700024	26.82600021	12.04354286	5.851823807	-13.42370701	1.0
[RightHandThumb2]
4	-32.29800034	-18.64699936	18.64699936	5.407698631	-5.692321301	-13.85489368	1.0
5	-32.29800034	-18.64699936	18.64699936	4.434017181	-7.425922394	-13.86905479	1.0
6	-32.29800034	-18.64699936	18.64699936	3.716236353	-9.822616577	-13.70931435	1.0
[RightHandThumb3]
4	-26.52600098	-15.31399918	15.31399918	-12.74218559	10.09540653	6.85444212	1.0
5	-26.52600098	-15.31399918	15.31399918	-12.80487251	10.40318871	6.744310856	1.0
6	-26.52600098	-15.31399918	15.31399918	-12.89603424	10.85125637	6.577430248	1.0
[RightHandThumb4]
4	-19.54599953	-11.28499985	11.28499985	0	0	0	1.0
5	-19.54599953	-11.28499985	11.28499985	0	0	0	1.0
6	-19.54599953	-11.28499985	11.28499985	0	0	0	1.0
[LeftUpLeg]
4	82.07800293	-67.51699829	-15.99599934	-34.49496078	-0.4848390818	-2.580003977	1.0
5	82.07800293	-67.51699829	-15.99599934	-36.35047531	1.15192318	-2.470566988	1.0
6	82.07800293	-67.51699829	-15.99599934	-39.47371292	2.340306044	-1.949289203	1.0
[LeftLeg]
4	0	-443.7049866	2.845999956	27.17669296	2.180014849	5.899437428	1.0
5	0	-443.7049866	2.845999956	17.79450607	2.721279383	4.099383831	1.0
6	0	-443.7049866	2.845999956	19.15607452	2.720746994	3.198686838	1.0
[LeftFoot]
4	0	-444.2789917	-29.8219986	-2.308044672	0.2822696269	-1.81224227	1.0
5	0	-444.2789917	-29.8219986	-4.889421463	-0.1092165858	-1.312893629	1.0
6	0	-444.2789917	-29.8219986	-10.20261669	-0.5199349523	-2.629034281	1.0
[LeftToeBase]
4	0	-87.28699493	107.1060028	-1.341815472	-4.197201179e-06	-6.380824402e-08	1.0
5	0	-87.28699493	107.1060028	-4.557536125	8.646623684e-08	3.662955521e-07	1.0
6	0	-87.28699493	107.1060028	-7.967364311	2.25212446e-07	2.296320417e-06	1.0
[RightUpLeg]
4	-82.07800293	-67.51699829	-15.99599934	0.3872452676	-14.31227016	3.858519793	1.0
5	-82.07800293	-67.51699829	-15.99599934	6.496014118	-16.02817917	0.8228194118	1.0
6	-82.07800293	-67.51699829	-15.99599934	11.86733818	-16.68076897	-1.665245414	1.0
[RightLeg]
4	0	-443.7049866	2.861999989	16.89143372	8.920819283	0.1708159	1.0
5	0	-443.7049866	2.861999989	14.72934341	10.09835911	0.5394766331	1.0
6	0	-443.7049866	2.861999989	13.93673515	10.24492073	-0.3688251972	1.0
[RightFoot]
4	0	-444.2770081	-29.83799934	-17.60416985	-0.5656980872	-3.048872471	1.0
5	0	-444.2770081	-29.83799934	-18.13527489	2.195425034	-3.41525054	1.0
6	0	-444.2770081	-29.83799934	-17.57825089	5.175233364	-2.493699551	1.0
[RightToeBase]
4	0	-87.28699493	107.1060028	-2.840982199	1.860138639e-07	-1.804280743e-07	1.0
5	0	-87.28699493	107.1060028	-5.49528265	-2.525690206e-06	-6.446243361e-08	1.0
6	0	-87.28699493	107.1060028	-11.55518246	1.340234576e-06	2.323057373e-07	1.0
[EndOfFile]
